<svg width="190" height="190" viewBox="0 0 190 190" fill="none" xmlns="http://www.w3.org/2000/svg">
<mask id="mask0_225_2" style="mask-type:alpha" maskUnits="userSpaceOnUse" x="0" y="0" width="190" height="190">
<path fill-rule="evenodd" clip-rule="evenodd" d="M0 0H190V190H0V0Z" fill="white"/>
</mask>
<g mask="url(#mask0_225_2)">
<path fill-rule="evenodd" clip-rule="evenodd" d="M95 190.001C42.75 190.001 0 147.251 0 94.526C0.475 42.276 42.75 -0.474009 95.475 0.00099076C147.725 0.475991 190 42.751 190 95.951C189.525 147.726 147.25 190.001 95 190.001Z" fill="#0090FF"/>
<path fill-rule="evenodd" clip-rule="evenodd" d="M104.025 83.6002L101.175 98.8002L128.25 102.6L126.35 109.725L99.7497 105.925C97.8497 112.1 96.8997 118.75 94.5247 124.45C92.1497 131.1 89.7747 137.75 86.9247 143.925C83.1247 152 76.4747 157.7 67.4497 159.125C62.2247 160.075 56.5247 159.6 52.2497 156.275C50.8247 155.325 49.3997 153.425 49.3997 152C49.3997 150.1 50.3497 147.725 51.7747 146.775C52.7247 146.3 55.0997 146.775 56.5247 147.25C57.9497 148.675 59.3747 150.575 60.3247 152.475C63.1747 156.275 66.9747 156.75 70.7747 153.9C75.0497 150.1 77.4247 144.875 78.8497 139.65C81.6997 128.25 84.5497 117.325 86.9247 105.925V104.025L61.7497 100.225L62.6997 93.1002L88.8247 96.9002L92.1497 82.1752L65.0747 77.9002L66.0247 70.3002L94.0497 74.1002C94.9997 71.2502 95.4747 68.8752 96.4247 66.5002C98.7997 57.9502 101.175 49.4002 106.875 41.8002C112.575 34.2002 119.225 29.4502 129.2 29.9252C133.475 29.9252 137.75 31.3502 140.6 34.6752C141.075 35.1502 142.025 36.1002 142.025 37.0502C142.025 38.9502 142.025 41.3252 140.6 42.7502C138.7 44.1752 136.325 43.7002 134.425 41.8002C133 40.3752 132.05 38.9502 130.625 37.5252C127.775 33.7252 123.5 33.2502 120.175 36.5752C117.8 38.9502 115.425 42.2752 114 45.6002C110.675 55.5752 108.3 66.0252 104.975 76.4752L131.1 80.2752L129.2 87.4002L104.025 83.6002Z" fill="white"/>
</g>
</svg>
