<svg width="245" height="52" viewBox="0 0 245 52" fill="none" xmlns="http://www.w3.org/2000/svg">
<g filter="url(#filter0_d_387_16936)">
<rect width="241" height="48" rx="4" fill="#BAC4FA"/>
<path d="M24.7867 31L29.3267 16.6H32.8567L37.3967 31H34.9167L30.7967 18.08H31.3367L27.2667 31H24.7867ZM27.3167 27.88V25.63H34.8767V27.88H27.3167ZM44.3947 31.3C43.3414 31.3 42.458 31.05 41.7447 30.55C41.0314 30.05 40.4947 29.37 40.1347 28.51C39.7747 27.6433 39.5947 26.6733 39.5947 25.6C39.5947 24.5133 39.7747 23.54 40.1347 22.68C40.4947 21.82 41.0214 21.1433 41.7147 20.65C42.4147 20.15 43.278 19.9 44.3047 19.9C45.3247 19.9 46.208 20.15 46.9547 20.65C47.708 21.1433 48.2914 21.82 48.7047 22.68C49.118 23.5333 49.3247 24.5067 49.3247 25.6C49.3247 26.68 49.1214 27.65 48.7147 28.51C48.308 29.37 47.7347 30.05 46.9947 30.55C46.2547 31.05 45.388 31.3 44.3947 31.3ZM39.1847 35.8V20.2H41.3147V27.78H41.6147V35.8H39.1847ZM44.0247 29.14C44.6514 29.14 45.168 28.9833 45.5747 28.67C45.9814 28.3567 46.2814 27.9333 46.4747 27.4C46.6747 26.86 46.7747 26.26 46.7747 25.6C46.7747 24.9467 46.6747 24.3533 46.4747 23.82C46.2747 23.28 45.9647 22.8533 45.5447 22.54C45.1247 22.22 44.5914 22.06 43.9447 22.06C43.3314 22.06 42.8314 22.21 42.4447 22.51C42.058 22.8033 41.7714 23.2167 41.5847 23.75C41.4047 24.2767 41.3147 24.8933 41.3147 25.6C41.3147 26.3 41.4047 26.9167 41.5847 27.45C41.7714 27.9833 42.0614 28.4 42.4547 28.7C42.8547 28.9933 43.378 29.14 44.0247 29.14ZM56.7189 31.3C55.6656 31.3 54.7822 31.05 54.0689 30.55C53.3556 30.05 52.8189 29.37 52.4589 28.51C52.0989 27.6433 51.9189 26.6733 51.9189 25.6C51.9189 24.5133 52.0989 23.54 52.4589 22.68C52.8189 21.82 53.3456 21.1433 54.0389 20.65C54.7389 20.15 55.6022 19.9 56.6289 19.9C57.6489 19.9 58.5322 20.15 59.2789 20.65C60.0322 21.1433 60.6156 21.82 61.0289 22.68C61.4422 23.5333 61.6489 24.5067 61.6489 25.6C61.6489 26.68 61.4456 27.65 61.0389 28.51C60.6322 29.37 60.0589 30.05 59.3189 30.55C58.5789 31.05 57.7122 31.3 56.7189 31.3ZM51.5089 35.8V20.2H53.6389V27.78H53.9389V35.8H51.5089ZM56.3489 29.14C56.9756 29.14 57.4922 28.9833 57.8989 28.67C58.3056 28.3567 58.6056 27.9333 58.7989 27.4C58.9989 26.86 59.0989 26.26 59.0989 25.6C59.0989 24.9467 58.9989 24.3533 58.7989 23.82C58.5989 23.28 58.2889 22.8533 57.8689 22.54C57.4489 22.22 56.9156 22.06 56.2689 22.06C55.6556 22.06 55.1556 22.21 54.7689 22.51C54.3822 22.8033 54.0956 23.2167 53.9089 23.75C53.7289 24.2767 53.6389 24.8933 53.6389 25.6C53.6389 26.3 53.7289 26.9167 53.9089 27.45C54.0956 27.9833 54.3856 28.4 54.7789 28.7C55.1789 28.9933 55.7022 29.14 56.3489 29.14ZM64.0531 31V16.3H66.4631V31H64.0531ZM70.8786 35.8L72.9586 30.09L72.9986 31.77L68.2886 20.2H70.7986L74.1386 28.76H73.4986L76.7486 20.2H79.1586L73.1386 35.8H70.8786ZM90.9839 31C90.2706 31.1333 89.5706 31.19 88.8839 31.17C88.2039 31.1567 87.5939 31.0333 87.0539 30.8C86.5139 30.56 86.1039 30.1833 85.8239 29.67C85.5772 29.2033 85.4472 28.7267 85.4339 28.24C85.4206 27.7533 85.4139 27.2033 85.4139 26.59V17.2H87.8139V26.45C87.8139 26.8833 87.8172 27.2633 87.8239 27.59C87.8372 27.9167 87.9072 28.1833 88.0339 28.39C88.2739 28.79 88.6572 29.0133 89.1839 29.06C89.7106 29.1067 90.3106 29.08 90.9839 28.98V31ZM83.4539 22.09V20.2H90.9839V22.09H83.4539ZM97.5294 31.3C96.4494 31.3 95.506 31.0567 94.6994 30.57C93.8927 30.0833 93.266 29.4133 92.8194 28.56C92.3794 27.7 92.1594 26.7133 92.1594 25.6C92.1594 24.4667 92.386 23.4733 92.8394 22.62C93.2927 21.7667 93.9227 21.1 94.7294 20.62C95.536 20.14 96.4694 19.9 97.5294 19.9C98.616 19.9 99.5627 20.1433 100.369 20.63C101.176 21.1167 101.803 21.79 102.249 22.65C102.696 23.5033 102.919 24.4867 102.919 25.6C102.919 26.72 102.693 27.71 102.239 28.57C101.793 29.4233 101.166 30.0933 100.359 30.58C99.5527 31.06 98.6094 31.3 97.5294 31.3ZM97.5294 29.04C98.4894 29.04 99.2027 28.72 99.6694 28.08C100.136 27.44 100.369 26.6133 100.369 25.6C100.369 24.5533 100.133 23.72 99.6594 23.1C99.186 22.4733 98.476 22.16 97.5294 22.16C96.8827 22.16 96.3494 22.3067 95.9294 22.6C95.516 22.8867 95.2094 23.29 95.0094 23.81C94.8094 24.3233 94.7094 24.92 94.7094 25.6C94.7094 26.6467 94.946 27.4833 95.4194 28.11C95.8994 28.73 96.6027 29.04 97.5294 29.04ZM109.127 31V16.6H111.537V22.66H118.357V16.6H120.757V31H118.357V24.92H111.537V31H109.127ZM124.98 35.8L127.06 30.09L127.1 31.77L122.39 20.2H124.9L128.24 28.76H127.6L130.85 20.2H133.26L127.24 35.8H124.98ZM139.942 31.3C138.888 31.3 138.005 31.05 137.292 30.55C136.578 30.05 136.042 29.37 135.682 28.51C135.322 27.6433 135.142 26.6733 135.142 25.6C135.142 24.5133 135.322 23.54 135.682 22.68C136.042 21.82 136.568 21.1433 137.262 20.65C137.962 20.15 138.825 19.9 139.852 19.9C140.872 19.9 141.755 20.15 142.502 20.65C143.255 21.1433 143.838 21.82 144.252 22.68C144.665 23.5333 144.872 24.5067 144.872 25.6C144.872 26.68 144.668 27.65 144.262 28.51C143.855 29.37 143.282 30.05 142.542 30.55C141.802 31.05 140.935 31.3 139.942 31.3ZM134.732 35.8V20.2H136.862V27.78H137.162V35.8H134.732ZM139.572 29.14C140.198 29.14 140.715 28.9833 141.122 28.67C141.528 28.3567 141.828 27.9333 142.022 27.4C142.222 26.86 142.322 26.26 142.322 25.6C142.322 24.9467 142.222 24.3533 142.022 23.82C141.822 23.28 141.512 22.8533 141.092 22.54C140.672 22.22 140.138 22.06 139.492 22.06C138.878 22.06 138.378 22.21 137.992 22.51C137.605 22.8033 137.318 23.2167 137.132 23.75C136.952 24.2767 136.862 24.8933 136.862 25.6C136.862 26.3 136.952 26.9167 137.132 27.45C137.318 27.9833 137.608 28.4 138.002 28.7C138.402 28.9933 138.925 29.14 139.572 29.14ZM151.986 31.3C150.892 31.3 149.932 31.0633 149.106 30.59C148.279 30.1167 147.632 29.46 147.166 28.62C146.706 27.78 146.476 26.8133 146.476 25.72C146.476 24.54 146.702 23.5167 147.156 22.65C147.609 21.7767 148.239 21.1 149.046 20.62C149.852 20.14 150.786 19.9 151.846 19.9C152.966 19.9 153.916 20.1633 154.696 20.69C155.482 21.21 156.066 21.9467 156.446 22.9C156.826 23.8533 156.969 24.9767 156.876 26.27H154.486V25.39C154.479 24.2167 154.272 23.36 153.866 22.82C153.459 22.28 152.819 22.01 151.946 22.01C150.959 22.01 150.226 22.3167 149.746 22.93C149.266 23.5367 149.026 24.4267 149.026 25.6C149.026 26.6933 149.266 27.54 149.746 28.14C150.226 28.74 150.926 29.04 151.846 29.04C152.439 29.04 152.949 28.91 153.376 28.65C153.809 28.3833 154.142 28 154.376 27.5L156.756 28.22C156.342 29.1933 155.702 29.95 154.836 30.49C153.976 31.03 153.026 31.3 151.986 31.3ZM148.266 26.27V24.45H155.696V26.27H148.266ZM159.107 31V20.2H161.237V22.83L160.977 22.49C161.11 22.13 161.287 21.8033 161.507 21.51C161.734 21.21 162.004 20.9633 162.317 20.77C162.584 20.59 162.877 20.45 163.197 20.35C163.524 20.2433 163.857 20.18 164.197 20.16C164.537 20.1333 164.867 20.1467 165.187 20.2V22.45C164.867 22.3567 164.497 22.3267 164.077 22.36C163.664 22.3933 163.29 22.51 162.957 22.71C162.624 22.89 162.35 23.12 162.137 23.4C161.93 23.68 161.777 24 161.677 24.36C161.577 24.7133 161.527 25.0967 161.527 25.51V31H159.107ZM170.875 31.3C169.541 31.3 168.458 31 167.625 30.4C166.791 29.8 166.285 28.9567 166.105 27.87L168.565 27.49C168.691 28.0233 168.971 28.4433 169.405 28.75C169.838 29.0567 170.385 29.21 171.045 29.21C171.625 29.21 172.071 29.0967 172.385 28.87C172.705 28.6367 172.865 28.32 172.865 27.92C172.865 27.6733 172.805 27.4767 172.685 27.33C172.571 27.1767 172.318 27.03 171.925 26.89C171.531 26.75 170.928 26.5733 170.115 26.36C169.208 26.12 168.488 25.8633 167.955 25.59C167.421 25.31 167.038 24.98 166.805 24.6C166.571 24.22 166.455 23.76 166.455 23.22C166.455 22.5467 166.631 21.96 166.985 21.46C167.338 20.96 167.831 20.5767 168.465 20.31C169.098 20.0367 169.845 19.9 170.705 19.9C171.545 19.9 172.288 20.03 172.935 20.29C173.588 20.55 174.115 20.92 174.515 21.4C174.915 21.88 175.161 22.4433 175.255 23.09L172.795 23.53C172.735 23.07 172.525 22.7067 172.165 22.44C171.811 22.1733 171.338 22.0233 170.745 21.99C170.178 21.9567 169.721 22.0433 169.375 22.25C169.028 22.45 168.855 22.7333 168.855 23.1C168.855 23.3067 168.925 23.4833 169.065 23.63C169.205 23.7767 169.485 23.9233 169.905 24.07C170.331 24.2167 170.965 24.3967 171.805 24.61C172.665 24.83 173.351 25.0833 173.865 25.37C174.385 25.65 174.758 25.9867 174.985 26.38C175.218 26.7733 175.335 27.25 175.335 27.81C175.335 28.8967 174.938 29.75 174.145 30.37C173.358 30.99 172.268 31.3 170.875 31.3ZM182.215 31.3C181.102 31.3 180.152 31.0533 179.365 30.56C178.578 30.06 177.975 29.38 177.555 28.52C177.142 27.66 176.932 26.6867 176.925 25.6C176.932 24.4933 177.148 23.5133 177.575 22.66C178.008 21.8 178.622 21.1267 179.415 20.64C180.208 20.1467 181.152 19.9 182.245 19.9C183.472 19.9 184.508 20.21 185.355 20.83C186.208 21.4433 186.765 22.2833 187.025 23.35L184.625 24C184.438 23.42 184.128 22.97 183.695 22.65C183.262 22.3233 182.768 22.16 182.215 22.16C181.588 22.16 181.072 22.31 180.665 22.61C180.258 22.9033 179.958 23.31 179.765 23.83C179.572 24.35 179.475 24.94 179.475 25.6C179.475 26.6267 179.705 27.4567 180.165 28.09C180.625 28.7233 181.308 29.04 182.215 29.04C182.855 29.04 183.358 28.8933 183.725 28.6C184.098 28.3067 184.378 27.8833 184.565 27.33L187.025 27.88C186.692 28.98 186.108 29.8267 185.275 30.42C184.442 31.0067 183.422 31.3 182.215 31.3ZM191.873 31.3C191.093 31.3 190.433 31.1533 189.893 30.86C189.353 30.56 188.943 30.1633 188.663 29.67C188.39 29.1767 188.253 28.6333 188.253 28.04C188.253 27.52 188.34 27.0533 188.513 26.64C188.686 26.22 188.953 25.86 189.313 25.56C189.673 25.2533 190.14 25.0033 190.713 24.81C191.146 24.67 191.653 24.5433 192.233 24.43C192.82 24.3167 193.453 24.2133 194.133 24.12C194.82 24.02 195.536 23.9133 196.283 23.8L195.423 24.29C195.43 23.5433 195.263 22.9933 194.923 22.64C194.583 22.2867 194.01 22.11 193.203 22.11C192.716 22.11 192.246 22.2233 191.793 22.45C191.34 22.6767 191.023 23.0667 190.843 23.62L188.643 22.93C188.91 22.0167 189.416 21.2833 190.163 20.73C190.916 20.1767 191.93 19.9 193.203 19.9C194.163 19.9 195.006 20.0567 195.733 20.37C196.466 20.6833 197.01 21.1967 197.363 21.91C197.556 22.29 197.673 22.68 197.713 23.08C197.753 23.4733 197.773 23.9033 197.773 24.37V31H195.663V28.66L196.013 29.04C195.526 29.82 194.956 30.3933 194.303 30.76C193.656 31.12 192.846 31.3 191.873 31.3ZM192.353 29.38C192.9 29.38 193.366 29.2833 193.753 29.09C194.14 28.8967 194.446 28.66 194.673 28.38C194.906 28.1 195.063 27.8367 195.143 27.59C195.27 27.2833 195.34 26.9333 195.353 26.54C195.373 26.14 195.383 25.8167 195.383 25.57L196.123 25.79C195.396 25.9033 194.773 26.0033 194.253 26.09C193.733 26.1767 193.286 26.26 192.913 26.34C192.54 26.4133 192.21 26.4967 191.923 26.59C191.643 26.69 191.406 26.8067 191.213 26.94C191.02 27.0733 190.87 27.2267 190.763 27.4C190.663 27.5733 190.613 27.7767 190.613 28.01C190.613 28.2767 190.68 28.5133 190.813 28.72C190.946 28.92 191.14 29.08 191.393 29.2C191.653 29.32 191.973 29.38 192.353 29.38ZM200.577 31V16.3H202.987V31H200.577ZM210.892 31.3C209.799 31.3 208.839 31.0633 208.012 30.59C207.185 30.1167 206.539 29.46 206.072 28.62C205.612 27.78 205.382 26.8133 205.382 25.72C205.382 24.54 205.609 23.5167 206.062 22.65C206.515 21.7767 207.145 21.1 207.952 20.62C208.759 20.14 209.692 19.9 210.752 19.9C211.872 19.9 212.822 20.1633 213.602 20.69C214.389 21.21 214.972 21.9467 215.352 22.9C215.732 23.8533 215.875 24.9767 215.782 26.27H213.392V25.39C213.385 24.2167 213.179 23.36 212.772 22.82C212.365 22.28 211.725 22.01 210.852 22.01C209.865 22.01 209.132 22.3167 208.652 22.93C208.172 23.5367 207.932 24.4267 207.932 25.6C207.932 26.6933 208.172 27.54 208.652 28.14C209.132 28.74 209.832 29.04 210.752 29.04C211.345 29.04 211.855 28.91 212.282 28.65C212.715 28.3833 213.049 28 213.282 27.5L215.662 28.22C215.249 29.1933 214.609 29.95 213.742 30.49C212.882 31.03 211.932 31.3 210.892 31.3ZM207.172 26.27V24.45H214.602V26.27H207.172Z" fill="#160A2F"/>
<rect x="1" y="1" width="239" height="46" rx="3" stroke="black" stroke-width="2"/>
</g>
<defs>
<filter id="filter0_d_387_16936" x="0" y="0" width="245" height="52" filterUnits="userSpaceOnUse" color-interpolation-filters="sRGB">
<feFlood flood-opacity="0" result="BackgroundImageFix"/>
<feColorMatrix in="SourceAlpha" type="matrix" values="0 0 0 0 0 0 0 0 0 0 0 0 0 0 0 0 0 0 127 0" result="hardAlpha"/>
<feOffset dx="4" dy="4"/>
<feComposite in2="hardAlpha" operator="out"/>
<feColorMatrix type="matrix" values="0 0 0 0 0 0 0 0 0 0 0 0 0 0 0 0 0 0 1 0"/>
<feBlend mode="normal" in2="BackgroundImageFix" result="effect1_dropShadow_387_16936"/>
<feBlend mode="normal" in="SourceGraphic" in2="effect1_dropShadow_387_16936" result="shape"/>
</filter>
</defs>
</svg>
