<svg width="1440" height="900" viewBox="0 0 1440 900" fill="none" xmlns="http://www.w3.org/2000/svg">
<g clip-path="url(#clip0_571_24046)">
<rect width="1440" height="900" fill="#160A2F"/>
<g clip-path="url(#clip1_571_24046)">
<path d="M1358.26 2044.87L1503.71 -75.2075" stroke="#251A3F"/>
<path d="M1767.34 1962.08L1503.72 -75.2077" stroke="#251A3F"/>
<path d="M2154.62 1839.57L1503.71 -75.2077" stroke="#251A3F"/>
<path d="M901.844 2012.07L1503.79 -74.7442" stroke="#251A3F"/>
<path d="M430.664 1974.57L1503.79 -74.7443" stroke="#251A3F"/>
<path d="M-8.13281 1946.69L1503.82 -74.9861" stroke="#251A3F"/>
<path d="M-463.125 1913.99L1503.71 -75.2078" stroke="#251A3F"/>
<path d="M-918.102 1881.3L1503.72 -75.2077" stroke="#251A3F"/>
<path d="M-1373.09 1848.6L1503.71 -75.2086" stroke="#251A3F"/>
<path d="M-1828.09 1815.91L1503.71 -75.2075" stroke="#251A3F"/>
<path d="M-2283.07 1783.22L1503.71 -75.2075" stroke="#251A3F" stroke-width="0.75"/>
<path d="M-3228.48 1724.2L1503.79 -74.7412" stroke="#251A3F" stroke-width="0.75"/>
<path d="M-3745.86 1690.03L1503.78 -74.7411" stroke="#251A3F" stroke-width="0.75"/>
<path d="M-4579.29 1728.9L1503.78 -74.7408" stroke="#251A3F" stroke-width="0.75"/>
<path d="M-4585.41 1534.96L1503.78 -74.7408" stroke="#251A3F" stroke-width="0.75"/>
<path d="M-4499.35 1314.06L1503.78 -74.7406" stroke="#251A3F" stroke-width="0.5"/>
<path d="M-4553.64 1141.73L1503.78 -74.7406" stroke="#251A3F" stroke-width="0.5"/>
<path d="M-4630.33 960.263L1503.79 -74.7407" stroke="#251A3F" stroke-width="0.5"/>
<path d="M-4677.46 799.972L1503.79 -74.7407" stroke="#251A3F" stroke-width="0.5"/>
<path d="M-4698.81 657.576L1503.78 -74.7407" stroke="#251A3F" stroke-width="0.5"/>
<path d="M-4698.12 529.296L1503.78 -74.7407" stroke="#251A3F" stroke-width="0.5"/>
<path d="M-4680.62 418.265L1503.78 -74.7407" stroke="#251A3F" stroke-width="0.5"/>
<path d="M-4674.59 334.481L1503.78 -74.7407" stroke="#251A3F" stroke-width="0.25"/>
<path d="M-4665.27 260.459L1503.78 -74.7406" stroke="#251A3F" stroke-width="0.25"/>
<path d="M-4662.89 199.473L1503.78 -74.7407" stroke="#251A3F" stroke-width="0.25"/>
<path d="M-4663.65 147.284L1503.78 -74.7406" stroke="#251A3F" stroke-width="0.25"/>
<path d="M-4655.76 100.229L1503.78 -74.7408" stroke="#251A3F" stroke-width="0.25"/>
<path d="M-4652.46 61.3648L1503.78 -74.7407" stroke="#251A3F" stroke-width="0.25"/>
<path d="M-4652.88 25.2423L1503.78 -74.7407" stroke="#251A3F" stroke-width="0.25"/>
<path d="M-4649.09 -6.56799L1503.78 -74.7408" stroke="#251A3F" stroke-width="0.25"/>
<path d="M-4645.48 -35.8845L1503.78 -74.7407" stroke="#251A3F" stroke-width="0.25"/>
<path d="M-4646.6 -62.0327L1503.78 -74.7407" stroke="#251A3F" stroke-width="0.25"/>
<path d="M-4649.48 -84.7973L1503.79 -74.7406" stroke="#251A3F" stroke-width="0.25"/>
<path d="M-2785.55 1762.04L1504.25 -74.8138" stroke="#251A3F" stroke-width="0.75"/>
<path d="M2242.84 -175.878C2264.01 -106.08 2251.04 -29.4887 2209.38 49.283C2167.71 128.057 2097.37 208.979 2003.85 287.396C1816.82 444.227 1537.2 590.972 1209.31 690.433C881.42 789.895 567.394 823.226 324.754 796.729C203.433 783.481 99.9839 755.278 21.5762 712.927C-56.8289 670.577 -110.163 614.098 -131.335 544.3C-152.508 474.501 -139.539 397.91 -97.8747 319.139C-56.2091 240.364 14.1383 159.442 107.654 81.0261C294.683 -75.8055 574.307 -222.551 902.195 -322.012C1230.08 -421.473 1544.11 -454.804 1786.75 -428.308C1908.07 -415.059 2011.52 -386.857 2089.93 -344.505C2168.33 -302.155 2221.67 -245.676 2242.84 -175.878Z" stroke="#251A3F"/>
<path d="M2261.3 -115.015C2285.02 -36.8145 2270.31 49.0465 2223.31 137.387C2176.32 225.731 2097.05 316.52 1991.72 404.534C1781.06 580.56 1466.25 745.418 1097.21 857.362C728.173 969.306 374.825 1007.13 101.877 977.795C-34.598 963.13 -150.948 931.679 -239.105 884.333C-327.26 836.989 -387.191 773.769 -410.912 695.568C-434.634 617.367 -419.924 531.506 -372.928 443.165C-325.931 354.822 -246.661 264.033 -141.332 176.019C69.3238 -0.00691886 384.136 -164.865 753.175 -276.809C1122.21 -388.753 1475.56 -426.572 1748.51 -397.242C1884.98 -382.577 2001.33 -351.126 2089.49 -303.78C2177.65 -256.436 2237.58 -193.216 2261.3 -115.015Z" stroke="#251A3F"/>
<path d="M2287.01 -30.2652C2314.28 59.6395 2297.94 158.17 2244.95 259.4C2191.96 360.633 2102.34 464.532 1983.13 565.132C1744.7 766.329 1387.98 954.26 969.463 1081.21C550.948 1208.16 149.931 1250.08 -160.092 1215.25C-315.105 1197.84 -447.344 1161.24 -547.643 1106.5C-647.94 1051.77 -716.269 978.922 -743.54 889.017C-770.812 799.112 -754.468 700.581 -701.481 599.351C-648.492 498.119 -558.873 394.219 -439.658 293.62C-201.232 92.4228 155.494 -95.5085 574.009 -222.46C992.525 -349.412 1393.54 -391.333 1703.56 -356.501C1858.58 -339.085 1990.82 -302.484 2091.12 -247.749C2191.41 -193.016 2259.74 -120.17 2287.01 -30.2652Z" stroke="#251A3F"/>
<path d="M2232.24 -210.806C2251.95 -145.825 2240.99 -74.856 2204.2 -2.13013C2167.42 70.5989 2104.83 145.057 2021.35 216.976C1854.4 360.813 1603.98 494.431 1309.65 583.711C1015.32 672.992 732.868 701.016 514.14 674.171C404.776 660.748 311.368 633.61 240.377 593.574C169.389 553.539 120.843 500.623 101.132 435.641C81.4205 370.659 92.3874 299.69 129.17 226.964C165.955 154.235 228.545 79.7775 312.022 7.85853C478.975 -135.979 729.4 -269.597 1023.73 -358.877C1318.05 -448.158 1600.51 -476.182 1819.23 -449.336C1928.6 -435.914 2022.01 -408.776 2093 -368.739C2163.99 -328.704 2212.53 -275.788 2232.24 -210.806Z" stroke="#251A3F"/>
<path opacity="0.7" d="M2177.88 -391.299C2202.28 -310.884 2177.85 -223.961 2118.62 -148.428C2059.39 -72.8953 1965.36 -8.76258 1850.57 26.0594C1735.77 60.8815 1621.95 59.7965 1530.74 29.8986C1439.53 0.000485593 1370.93 -58.7056 1346.54 -139.121C1322.15 -219.536 1346.57 -306.459 1405.8 -381.992C1465.03 -457.525 1559.06 -521.657 1673.86 -556.479C1788.66 -591.301 1902.47 -590.216 1993.68 -560.318C2084.89 -530.42 2153.49 -471.714 2177.88 -391.299Z" stroke="#251A3F" stroke-width="0.25"/>
<path opacity="0.7" d="M2176.87 -394.648C2200.99 -315.157 2177.86 -229.542 2120.96 -155.377C2064.06 -81.2129 1973.38 -18.5077 1862.42 15.1518C1751.45 48.8114 1641.22 47.0492 1552.7 16.9961C1464.19 -13.0571 1397.39 -71.3967 1373.28 -150.888C1349.17 -230.38 1372.29 -315.994 1429.2 -390.159C1486.1 -464.324 1576.78 -527.029 1687.74 -560.688C1798.71 -594.348 1908.94 -592.586 1997.45 -562.533C2085.97 -532.48 2152.76 -474.14 2176.87 -394.648Z" stroke="#251A3F" stroke-width="0.25"/>
<path opacity="0.7" d="M2174.69 -401.825C2198.21 -324.314 2177.43 -241.37 2124.81 -169.923C2072.18 -98.4764 1987.72 -38.5347 1883.9 -7.03975C1780.07 24.4552 1676.54 21.5374 1593.09 -8.63446C1509.65 -38.8064 1446.29 -96.2284 1422.78 -173.74C1399.26 -251.252 1420.04 -334.196 1472.67 -405.643C1525.29 -477.089 1609.75 -537.031 1713.58 -568.526C1817.4 -600.021 1920.93 -597.103 2004.38 -566.931C2087.82 -536.759 2151.18 -479.337 2174.69 -401.825Z" stroke="#251A3F" stroke-width="0.25"/>
<path d="M2174.26 -403.261C2197.65 -326.145 2177.35 -243.738 2125.6 -172.841C2073.85 -101.943 1990.66 -42.5611 1888.29 -11.507C1785.91 19.547 1683.75 16.3908 1601.33 -13.8101C1518.92 -44.0109 1456.26 -101.253 1432.86 -178.369C1409.47 -255.484 1429.77 -337.891 1481.52 -408.789C1533.27 -479.687 1616.46 -539.068 1718.84 -570.122C1821.21 -601.176 1923.37 -598.02 2005.79 -567.819C2088.2 -537.618 2150.86 -480.377 2174.26 -403.261Z" stroke="#251A3F" stroke-width="0.25"/>
<path opacity="0.7" d="M2175.56 -398.955C2199.32 -320.651 2177.36 -236.568 2122.65 -163.918C2067.93 -91.2685 1980.46 -30.0617 1873.19 2.47554C1765.93 35.0128 1659.2 32.7168 1573.34 2.70787C1487.48 -27.3011 1422.52 -85.0187 1398.76 -163.322C1375.01 -241.625 1396.97 -325.709 1451.68 -398.359C1506.4 -471.008 1593.87 -532.215 1701.13 -564.752C1808.4 -597.289 1915.13 -594.993 2000.99 -564.985C2086.84 -534.976 2151.81 -477.258 2175.56 -398.955Z" stroke="#251A3F" stroke-width="0.25"/>
<path opacity="0.7" d="M2175.13 -400.39C2198.76 -322.482 2177.45 -238.985 2123.87 -166.963C2070.28 -94.9412 1984.44 -34.4033 1879.02 -2.42725C1773.61 29.5488 1668.6 26.9056 1584.03 -3.21104C1499.47 -33.3277 1435.36 -90.9138 1411.73 -168.821C1388.1 -246.729 1409.41 -330.227 1462.99 -402.248C1516.57 -474.27 1602.42 -534.808 1707.83 -566.784C1813.25 -598.76 1918.26 -596.117 2002.82 -566C2087.39 -535.884 2151.5 -478.298 2175.13 -400.39Z" stroke="#251A3F" stroke-width="0.25"/>
<path opacity="0.7" d="M2176.14 -397.041C2200.06 -318.209 2177.61 -233.452 2121.96 -160.141C2066.31 -86.8299 1977.46 -24.9732 1868.61 8.04499C1759.76 41.0632 1651.53 38.9883 1564.53 8.94814C1477.53 -21.0921 1411.77 -79.0934 1387.86 -157.925C1363.95 -236.756 1386.4 -321.513 1442.05 -394.825C1497.7 -468.136 1586.54 -529.992 1695.39 -563.011C1804.24 -596.029 1912.48 -593.954 1999.48 -563.914C2086.48 -533.873 2152.23 -475.872 2176.14 -397.041Z" stroke="#251A3F" stroke-width="0.25"/>
<path opacity="0.4" d="M2178.93 -387.435C2203.63 -306.014 2178.13 -217.755 2116.87 -140.867C2055.62 -63.9808 1958.63 1.5111 1840.42 37.3689C1722.21 73.2267 1605.18 72.6548 1511.53 42.7555C1417.88 12.8557 1347.64 -46.3615 1322.95 -127.782C1298.25 -209.203 1323.75 -297.463 1385.01 -374.35C1446.26 -451.237 1543.25 -516.728 1661.46 -552.586C1779.67 -588.444 1896.7 -587.872 1990.35 -557.973C2083.99 -528.073 2154.23 -468.856 2178.93 -387.435Z" stroke="#251A3F" stroke-width="0.5"/>
<path opacity="0.4" d="M2180.23 -383.129C2205.29 -300.521 2178.3 -210.633 2114.33 -132.072C2050.37 -53.5129 1949.46 13.6955 1826.76 50.9163C1704.05 88.1371 1582.81 88.3166 1485.98 58.5301C1389.16 28.7432 1316.77 -30.999 1291.71 -113.606C1266.66 -196.214 1293.65 -286.102 1357.61 -364.663C1421.57 -443.222 1522.49 -510.431 1645.19 -547.651C1767.89 -584.872 1889.14 -585.052 1985.96 -555.265C2082.79 -525.478 2155.18 -465.736 2180.23 -383.129Z" stroke="#251A3F" stroke-width="0.5"/>
<path d="M2181.69 -378.344C2207.14 -294.418 2178.53 -202.734 2111.63 -122.334C2044.73 -41.9355 1939.55 27.1517 1811.96 65.8558C1684.36 104.56 1558.53 105.546 1458.24 75.8647C1357.94 46.1828 1283.22 -14.1555 1257.76 -98.0815C1232.3 -182.007 1260.91 -273.692 1327.82 -354.092C1394.72 -434.49 1499.89 -503.577 1627.49 -542.281C1755.08 -580.985 1880.91 -581.971 1981.21 -552.29C2081.5 -522.608 2156.23 -462.27 2181.69 -378.344Z" stroke="#251A3F" stroke-width="0.5"/>
<path d="M2183.86 -371.167C2209.92 -285.262 2179.34 -191.021 2108.76 -108.086C2038.18 -25.1534 1927.63 46.4433 1793.82 87.0314C1660.02 127.62 1528.32 129.507 1423.56 99.761C1318.8 70.0138 1241.02 8.64378 1214.96 -77.2613C1188.9 -163.166 1219.48 -257.408 1290.06 -340.343C1360.64 -423.275 1471.19 -494.872 1605 -535.46C1738.8 -576.048 1870.5 -577.936 1975.26 -548.189C2080.02 -518.442 2157.8 -457.072 2183.86 -371.167Z" stroke="#251A3F" stroke-width="0.5"/>
<path d="M2186.09 -362.96C2212.8 -274.927 2179.36 -177.669 2103.54 -91.5629C2027.73 -5.46368 1909.6 69.4169 1767.11 112.639C1624.62 155.862 1484.8 159.229 1373.93 129.757C1263.05 100.282 1181.21 37.992 1154.51 -50.0416C1127.81 -138.075 1161.25 -235.333 1237.06 -321.439C1312.87 -407.538 1431 -482.419 1573.49 -525.641C1715.98 -568.864 1855.81 -572.231 1966.68 -542.759C2077.55 -513.284 2159.39 -450.994 2186.09 -362.96Z" stroke="#251A3F"/>
<path d="M2223.54 -239.515C2260.56 -117.465 2186.72 25.7609 2037.04 158.705C1887.38 291.619 1662.06 414.112 1396.54 494.655C1131.02 575.197 875.621 598.525 677.348 571.15C479.028 543.77 338.063 465.701 301.041 343.652C264.019 221.603 337.857 78.3766 487.544 -54.5681C637.196 -187.481 862.516 -309.975 1128.04 -390.517C1393.56 -471.06 1648.96 -494.388 1847.23 -467.013C2045.55 -439.632 2186.52 -361.564 2223.54 -239.515Z" stroke="#251A3F"/>
<path d="M2189.14 -352.912C2216.68 -262.114 2179.78 -161.063 2097.67 -71.0582C2015.57 18.9373 1888.33 97.8114 1735.4 144.201C1582.47 190.591 1432.85 195.699 1314.59 166.481C1196.32 137.26 1109.5 73.7371 1081.96 -17.0617C1054.41 -107.861 1091.31 -208.911 1173.42 -298.916C1255.52 -388.911 1382.76 -467.786 1535.69 -514.175C1688.62 -560.565 1838.24 -565.673 1956.5 -536.455C2074.78 -507.234 2161.6 -443.711 2189.14 -352.912Z" stroke="#251A3F"/>
<path d="M2193.35 -339.037C2222.05 -244.418 2180.43 -138.147 2089.73 -42.7875C1999.04 52.5595 1859.35 136.908 1692.14 187.628C1524.94 238.347 1361.93 245.82 1233.55 216.925C1105.16 188.026 1011.51 122.783 982.813 28.1639C954.111 -66.4551 995.726 -172.726 1086.43 -268.085C1177.12 -363.432 1316.81 -447.781 1484.01 -498.5C1651.22 -549.22 1814.23 -556.693 1942.61 -527.797C2071 -498.898 2164.64 -433.656 2193.35 -339.037Z" stroke="#251A3F"/>
<path d="M2197.26 -326.118C2227.04 -227.94 2181.28 -116.883 2082.97 -16.6584C1984.68 83.5506 1833.94 172.83 1654.05 227.398C1474.16 281.966 1299.22 291.476 1161.82 262.762C1024.4 234.044 924.646 167.127 894.865 68.9492C865.084 -29.2283 910.848 -140.286 1009.16 -240.51C1107.45 -340.719 1258.19 -429.999 1438.08 -484.567C1617.97 -539.135 1792.91 -548.645 1930.31 -519.931C2067.73 -491.213 2167.48 -424.296 2197.26 -326.118Z" stroke="#251A3F"/>
<path d="M2202.2 -309.85C2233.34 -207.191 2182.08 -90.0217 2073.75 16.4627C1965.44 122.928 1800.18 218.603 1603.63 278.222C1407.09 337.841 1216.53 350.101 1067.32 321.75C918.088 293.395 810.369 224.451 779.229 121.792C748.089 19.1332 799.352 -98.036 907.683 -204.52C1015.99 -310.986 1181.26 -406.661 1377.8 -466.28C1574.34 -525.898 1764.9 -538.159 1914.11 -509.808C2063.34 -481.453 2171.06 -412.509 2202.2 -309.85Z" stroke="#251A3F"/>
<path d="M2208.59 -288.797C2241.49 -180.336 2183.53 -55.3878 2062.93 58.9848C1942.35 173.335 1759.27 276.992 1542.24 342.824C1325.22 408.656 1115.39 424.183 951.608 396.092C787.79 367.995 670.187 296.299 637.287 187.838C604.386 79.3764 662.339 -45.5715 782.941 -159.944C903.519 -274.294 1086.61 -377.951 1303.63 -443.783C1520.66 -509.615 1730.48 -525.143 1894.27 -497.051C2058.08 -468.954 2175.69 -397.259 2208.59 -288.797Z" stroke="#251A3F"/>
<path d="M2215.7 -265.352C2250.56 -150.428 2185.03 -16.7777 2050.56 106.441C1916.11 229.633 1712.89 342.266 1472.74 415.113C1232.59 487.96 1001.03 507.213 820.804 479.473C640.536 451.727 511.799 377.006 476.938 262.081C442.077 147.157 507.607 13.5068 642.081 -109.712C776.526 -232.904 979.754 -345.537 1219.9 -418.384C1460.05 -491.231 1691.61 -510.484 1871.84 -482.744C2052.1 -454.998 2180.84 -380.277 2215.7 -265.352Z" stroke="#251A3F"/>
</g>
</g>
<defs>
<clipPath id="clip0_571_24046">
<rect width="1440" height="900" fill="white"/>
</clipPath>
<clipPath id="clip1_571_24046">
<rect width="6073" height="2704" fill="white" transform="translate(-3727.28 -1031.14) rotate(4.11)"/>
</clipPath>
</defs>
</svg>
