<svg xmlns="http://www.w3.org/2000/svg" xmlns:xlink="http://www.w3.org/1999/xlink" viewBox="0 0 1440 793"><defs><linearGradient id="a"><stop offset="0" stop-color="#fffefe"/><stop offset="1" stop-color="#fffefe" stop-opacity="0"/></linearGradient><linearGradient xlink:href="#a" id="b" x1="-528.5" x2="1269" y1="1340" y2="301.1" gradientUnits="userSpaceOnUse"/></defs><g color="#000"><path fill="#1d1345" d="M-1018 541H422v793h-1440z" style="-inkscape-stroke:none;paint-order:markers fill stroke" transform="translate(1018 -541)"/><g fill="none" stroke="url(#b)" stroke-width=".9" opacity=".6" transform="matrix(.9993 0 0 .9981 558.1 -540)"><path d="M842.9 1335c13.2-2.5 26.4-5 39.4-7.8M61.7 1335l12.6-9.7c16.3 3.5 32.8 6.7 49.5 9.7m-514.9 0 27-18.2c13.8 6.2 27.9 12 42.2 17.7m775.9.5 21-20c6.7.3 13.3.8 20 1 32 .6 63.9.4 95.7-.4-6.4 6.5-13 13-19.6 19.4m-1119.7 0 33.5-22.3c13.6 7.5 27.5 14.8 41.7 22m239 .3 32.6-22.5c22 8 44.5 15.4 67.5 22.5m705.7 0a1164 1164 0 0 0 19.6-19.4c38.3-1 76.1-3.4 113.8-6.6-8.1 8.8-16.3 17.4-24.6 26m-349.4 0 30-26.9a1992 1992 0 0 0 114 7l-21 20m-537.2-.1 49.4-36.5a1723 1723 0 0 0 108 26.7l-12.7 9.7m619.2.1c8.3-8.6 16.5-17.3 24.6-26a1889 1889 0 0 0 113.4-12.9 1170.5 1170.5 0 0 1-35.6 39m-583.2-.1c16-13 32.1-26.3 48.2-40 37 5.5 74.6 9.7 112.5 13.1l-30 26.9" style="-inkscape-stroke:none"/><path d="M783.3 1335c12.2-12.8 24-25.7 35.6-39 21.3-3 42.5-6.3 63.4-10m0 41c-13.4 2.8-26.9 5.4-40.4 8m-717 0c-17-3-33.8-6.3-50.4-9.8 21-16.3 42-32.8 63.4-49.9 36 7.7 72.6 14.1 109.8 19.7a3156 3156 0 0 1-48.3 40m-520.7 0c-14.5-5.7-28.7-11.7-42.6-17.8l64.2-43.2a1409 1409 0 0 0 97.6 38.4 4308 4308 0 0 1-32.7 22.6m-238.1 0a1378 1378 0 0 1-42-22.1c18.5-12.4 41.2-27 61.2-40.2 28.6 15.6 58 30.6 89.3 44.5l-27.1 18.3m257.8-.5c-23.1-7.1-45.8-14.7-68-22.7 21-14.6 43.8-30.9 65.6-46.2 32.8 11.7 66.7 22.6 101.8 32.4-16.5 12.2-33.2 24.7-49.5 36.6m-473.9-47.1c13.7 8.3 27.9 16.4 42.3 24.3l-33.7 22.4M529.5 1261c17.9.6 35.7 1.4 53.6 1.4 19.4 0 38.7-.6 58-1.1-16.5 18.2-33 36.2-50.2 53.7-31.9.8-63.8 1-96 .4-6.5-.2-13-.7-19.6-.9 18.3-17.5 36.4-35.2 54.2-53.5" style="-inkscape-stroke:none"/><path d="M751.9 1255c-15.1 18-30.8 35.6-46.9 53a1988 1988 0 0 1-113.8 6.5c17.2-17.4 33.7-35.5 50.2-53.7 37.1-1 74-2.7 110.5-5.8m-334 0c36.8 3.3 74 5.3 111.3 6.4-17.8 18.3-36 36-54.2 53.5-38.4-1.2-76.4-3.6-114.1-7 19.1-17.2 38-34.9 57-52.9m-385.7-6c34.4 9.7 69.4 18.6 105.4 26.2-21.3 17-42.4 33.6-63.4 49.8-37-7.8-73-16.8-108-26.7a8041 8041 0 0 0 66-49.3" style="-inkscape-stroke:none"/><path d="M861.8 1243a1180.9 1180.9 0 0 1-43 52.4 1988 1988 0 0 1-113.5 13c16.1-17.4 31.8-35 46.9-53 37-3.1 73.6-7.2 109.6-12.4m-553.2-1c35.9 5.3 72.3 9.5 109.1 12.7-18.9 18-37.8 35.8-57 53-38-3.4-75.5-7.6-112.5-13.1a3839 3839 0 0 0 60.4-52.6m-696.9-13a1194 1194 0 0 0 88.3 44.1l-64.1 43.2c-31.3-14-60.8-29-89.3-44.6 21.2-14 42.2-27.8 65.1-42.7m156.3-1c30.5 13.5 62.7 25.9 95.6 37.6-21.8 15.4-44.5 31.6-65.5 46.3a1409 1409 0 0 1-97.7-38.4l62-41.7 5.6-3.8" style="-inkscape-stroke:none"/><path d="M882.4 1285c-20.9 3.7-42 7-63.3 10 15-17.1 29.3-34.6 43-52.4l20.3-3m-1440.2-2.6 21.6-14c25.7 17.4 53.5 33.7 82.3 49.4-20 13.2-42.7 27.9-61.2 40.3-14.5-8-28.7-16.1-42.5-24.4m760.2-66.3c34.7 7.3 69.8 14 105.7 19.3a3839.4 3839.4 0 0 1-60.4 52.6c-37.2-5.5-74-12-109.8-19.6 21.4-17.2 42.9-34.4 64.5-52.3m-270.1-5c32.2 11.5 65.4 22 99.4 31.5a8041 8041 0 0 1-66 49.3c-35-9.8-69-20.7-101.8-32.4a16841 16841 0 0 0 68.3-48.4m756.7-11a1787.5 1787.5 0 0 1-47.9 55.4c-19.3.5-38.6 1.3-58 1.2-18 0-35.7-.9-53.5-1.4 17.7-18.2 35.3-36.4 52.5-55.2 29.6 1 59.4 1.2 89.3.7 6 0 11.7-.5 17.6-.7" style="-inkscape-stroke:none"/><path d="M796.9 1200a1317 1317 0 0 1-44.9 55.7c-36.5 3-73.4 4.8-110.5 5.8 16.4-18 32.2-36.6 47.9-55.4 36.2-1 72-3.1 107.5-6.1m-322.2-1c35.5 3.1 71.2 5.5 107.2 6.6a2105 2105 0 0 1-52.5 55.1c-37.4-1.1-74.5-3.1-111.3-6.4 19-18.1 37.9-36.5 56.6-55.3m-374.5-2c33.3 9.3 67.3 17.8 102.2 25.1a5386.6 5386.6 0 0 1-64.5 52.4c-36-7.7-71-16.6-105.4-26.2 22.6-17.1 44.7-33.5 67.8-51.3" style="-inkscape-stroke:none"/><path d="M882.3 1216c-6.6 9-13.4 18-20.4 26.9-36 5.2-72.6 9.3-109.7 12.4a1477 1477 0 0 0 45-55.6c28.6-2.5 57-5.6 85-9.3m-512.6-4.4a1795 1795 0 0 0 104.9 12.6 2998.6 2998.6 0 0 1-56.6 55.3c-36.8-3.2-73.2-7.4-109-12.7 20.3-18 40.5-36.5 60.8-55.2m-689.1-2c27.9 15.3 56.6 30 87.2 43.6l-5.6 3.8-62 41.7A1192 1192 0 0 1-388 1229c22.8-14.9 40.6-27 65-42.6l3.7-2.4m-150.2-4c25.4 17.1 52.6 33.3 81 48.8l-65.1 42.8c-28.8-15.8-56.6-32-82.3-49.5 21-13.6 43.6-27.8 66.4-42.1m308.3 0c30 13.3 61.3 25.3 93.4 36.8l-68.4 48.4c-32.9-11.8-65-24.1-95.6-37.7l70.6-47.5m1043.6 60-20 3a1305 1305 0 0 0 20-26.4m-1440.1-8.6c7 5 14 10 21.3 15a5316 5316 0 0 0-21.4 13.8" style="-inkscape-stroke:none"/><path d="M267.4 1168a1731 1731 0 0 0 101.9 18.4 3991.8 3991.8 0 0 1-60.8 55.2c-36-5.3-71-12-105.7-19.3 21.4-17.7 43-36 64.6-54.3m-264.3-1c31.3 11.2 63.7 21.3 96.8 30.6-23 17.7-45.1 34.1-67.8 51.2-34-9.5-67.2-20-99.4-31.5 23.4-16.7 46.4-33 70.4-50.3m629.9-19c34 1 68 1.2 102.3.3a1966 1966 0 0 1-46 57.6c-6 .2-11.8.7-17.8.8-29.8.5-59.5.2-89.1-.7 17.2-19 34-38.5 50.6-58" style="-inkscape-stroke:none"/><path d="M168.2 1144c32.2 9 65.2 17 98.9 24.2a5765 5765 0 0 1-64.6 54.3c-34.8-7.4-68.8-15.8-102.1-25.2 22.3-17.2 45.2-35.5 67.8-53.3m669.7-2a1412.2 1412.2 0 0 1-40.8 57 1856 1856 0 0 1-107.5 6.1 1766 1766 0 0 0 46-57.6c8.4-.2 16.8 0 25.2-.4 26-1 51.6-3 77.1-5.1m-307.1-1c33.7 3 67.7 5 101.9 6.1-16.7 19.5-33.4 39-50.6 58-36-1.1-71.8-3.5-107.2-6.6 18.8-19 37.5-38 56-57.5m-777-3c27 14.8 54.9 29 84.7 42.3l-70.6 47.5a1170 1170 0 0 1-87.2-43.6c23-14.8 49.2-31 73.1-46.2m-152.7-2a998.3 998.3 0 0 0 79.1 48l-3.8 2.4c-24.3 15.6-42 27.7-64.8 42.5a1020.8 1020.8 0 0 1-81-48.8 6381 6381 0 0 1 70.5-44.1" style="-inkscape-stroke:none"/><path d="M882.4 1190c-28 3.7-56.4 6.8-85 9.2a1419 1419 0 0 0 40.8-57 1612 1612 0 0 0 44.2-4.2m-970.2-7c29.1 12.9 59.6 24.6 90.7 35.7-24 17.3-47 33.6-70.5 50.3a1344 1344 0 0 1-93.3-36.7l73.2-49.3m517.7-1c33.1 5 66.7 8.9 100.6 11.9a3012.1 3012.1 0 0 1-56 57.5 1863 1863 0 0 1-104.8-12.6C390 1168 410 1149.2 430 1130m-987.8 8 17.6-10.8c22 18.5 45.3 36.3 70.5 53.3a7013.6 7013.6 0 0 0-66.5 42.1l-21.4-15M75 1114a1423 1423 0 0 0 93 29.3c-22.7 17.8-45.5 36.1-67.9 53.3a1438 1438 0 0 1-96.8-30.5c23.5-16.9 47.8-34.7 71.8-52.1m257-2a1588 1588 0 0 0 97.6 17.5c-20 19.2-40 38-60.2 56.7-34.6-5.1-68.5-11.3-101.9-18.4 21.5-18.3 43-37 64.5-55.8m-655.7-21a971 971 0 0 0 77.2 47c-23.9 15.2-50 31.4-73 46.2a1003 1003 0 0 1-79.2-47.9l4-2.5c22.8-14 47.2-28.5 71-42.8m153.6-1a1112 1112 0 0 0 82 41l-73.1 49.2a1142.1 1142.1 0 0 1-84.7-42.3c24.8-15.8 50.3-31.8 75.8-47.9" style="-inkscape-stroke:none"/><path d="M237.8 1089c30.6 8.6 62 16.1 94 23a6038 6038 0 0 1-64.5 55.8 1642 1642 0 0 1-98.9-24.2c23.2-18.2 46-36 69.4-54.6m443.5 0c32.5 1 65 1 97.5.2-14 19.9-28.5 39.4-43.4 58.9-34.2.9-68.3.7-102.3-.3a2263 2263 0 0 0 48.2-58.8m-1149.8-5a827 827 0 0 0 69.5 52c-24.9 15.3-47.4 29.5-70.6 44.1a837.3 837.3 0 0 1-70.4-53.3c23.2-14 46.6-28.2 71.5-42.8" style="-inkscape-stroke:none"/><path d="M875.2 1084a1376 1376 0 0 1-37.2 58.4c-25.6 2.1-51.3 4-77.3 5.1-8.3.3-16.7.1-25 .4a1759 1759 0 0 0 43.4-59 1686 1686 0 0 0 96.1-4.9m-290.5-1c32 2.8 64 4.7 96.3 5.7a2283.3 2283.3 0 0 1-48.1 58.7 1777 1777 0 0 1-102-6c18.2-19.3 36.2-38.7 53.8-58.4m-596.9-3c28 12.4 57.1 23.7 87 34.3-24 17.4-48.2 35.2-71.7 52.1a1308.4 1308.4 0 0 1-90.6-35.7l75.3-50.7" style="-inkscape-stroke:none"/><path d="M882.4 1138c-14.6 1.6-29.3 3-44 4.2 13-19.2 25.2-38.7 37.2-58.4l6.8-.5M489.3 1072c31.4 4.7 63 8.6 95.1 11.4a3059.5 3059.5 0 0 1-53.7 58.4c-34-3-67.5-7-100.6-12 19.8-19 39.6-38.2 59.2-57.8m-1047 40c5.6 5 11.4 10 17.3 15l-17.5 10.6m706.5-76.6c28.8 10.3 58.5 19.5 89 28-23.5 18.7-46.3 36.4-69.5 54.6-31.7-9-62.8-18.6-92.9-29.3 24.5-17.8 48.5-35 73.4-53.3m247.7-6c30.4 6.4 61.5 11.8 92.8 16.4a4183.3 4183.3 0 0 1-59.2 57.9c-33-5-65.6-10.7-97.6-17.5a5543 5543 0 0 0 64-56.8m-641.6-11c23.6 16 48.4 31.3 75 45.8-25.5 16.1-51 32.1-75.8 48-27.3-15-53-30.7-77.2-47.1 25.7-15.5 51.3-31 78-46.7m153.5-4a1070 1070 0 0 0 79.4 39.5l-75.4 50.8a1080.4 1080.4 0 0 1-82-41c26.3-16.5 51-32.5 78-49.3m-300 0a814.6 814.6 0 0 0 68 50.7c-23.8 14.3-48.2 28.8-71.1 42.8l-4 2.5a829 829 0 0 1-69.4-52l17.8-10.7c18.9-11 39.2-22.2 58.7-33.3" style="-inkscape-stroke:none"/><path d="M307 1033c29.1 8.2 58.7 15.7 89 22a4748.1 4748.1 0 0 1-64 56.9 1504 1504 0 0 1-94-23c23-18.3 45.9-37 69-55.9m420.9-5c30.5 1 61 1.2 91.6.4-13 20.2-26.6 40.3-40.5 60.2-32.5.8-65 .8-97.5-.2 15.8-20 31.3-40 46.4-60.4m-1285.6 17 30.5-17.2c18 19.2 37.2 38 58.5 55.9a4650.3 4650.3 0 0 0-71.4 42.8c-6-5-11.8-10-17.6-15.2M65.2 1028c26.7 11.9 54.6 22.7 83.2 33L75 1114.1c-29.8-10.6-59-22-87-34.3l77.1-51.9" style="-inkscape-stroke:none"/><path d="m882.4 1072-7 11.6c-31.9 2.7-64 4.2-96 5a1916 1916 0 0 0 40.4-60.2 1697 1697 0 0 0 62.6-2.8m-245.5-2.6a1586 1586 0 0 0 90.7 5.3c-15 20.4-30.5 40.5-46.4 60.4-32.3-1-64.4-2.8-96.3-5.7 17.7-19.7 34.9-39.8 52-60m245.5 60-6.7.6 6.7-11.2M547.5 1012c29.4 4.4 59.2 7.6 89.2 10.3a2981 2981 0 0 1-52 60c-32-2.8-63.8-6.7-95.2-11.4 19.5-19.5 38.9-39 58-58.9m-324.7-6c27.3 9.7 55.3 18.7 84 26.7-23.2 18.8-46 37.6-69 56-30.4-8.5-60.2-17.8-89-28l74-54.7" style="-inkscape-stroke:none"/><path d="M460.5 996.5a1437 1437 0 0 0 86.7 15.9 4237.6 4237.6 0 0 1-58 58.9c-31.3-4.7-62.3-10-92.8-16.4a6226 6226 0 0 0 64.1-58.4m-624.2-.2c22.6 15.2 46.3 30 71.8 43.9-27 16.8-51.8 32.8-78.1 49.3a937.8 937.8 0 0 1-75-45.8c26.6-15.7 54-31.5 81.3-47.4m-147.7-2c20.3 17 42.4 33.5 65.8 49.4-26.6 15.8-52.2 31.2-78 46.7a815 815 0 0 1-68-50.7c26.6-15 52.6-30.1 80.2-45.4m300.4-4.1c24.1 13.2 49.3 25.8 75.9 37.7l-77.1 51.9c-28-12.4-54.1-25.8-79.3-39.6l80.6-50m-438.6-5a661 661 0 0 0 57.5 54.6c-19.5 11-39.8 22.3-58.7 33.3-6.3 3.6-11.5 7-17.7 10.6a671.3 671.3 0 0 1-58.5-55.9c12.9-7.2 24.3-14.1 37.8-21.5 12.7-7 26.6-14 39.6-21.1" style="-inkscape-stroke:none"/><path d="M376.4 975.8c27.4 7.7 55.4 14.7 83.9 20.7-21.3 19.7-42.7 39-64.1 58.4a1522 1522 0 0 1-89-22.1c23-18.8 46.1-37.9 69.2-57m-232.7-.8c25.4 11.3 51.9 21.4 78.8 31-24.8 18.3-49.5 36.8-74 54.7a1196 1196 0 0 1-83.2-33l78.4-52.7m-701.4 17.9a617.7 617.7 0 0 0 30.4 35l-30.4 17m1329.5-77.8c28 .9 56.2 1 84.5.2a1631.3 1631.3 0 0 1-36.7 61c-30.5.7-61 .5-91.6-.4 15-20.1 29.7-40.3 43.8-60.8" style="-inkscape-stroke:none"/><path d="M882.3 1025c-20.8 1.3-41.6 2.2-62.5 2.7a1631 1631 0 0 0 36.7-61c8.6-.1 17.2-.2 25.8-.5m-195.4-4.1c28 2.5 56.2 4.1 84.6 5a2158.6 2158.6 0 0 1-43.8 60.8 1586 1586 0 0 1-90.7-5.3c17-20 33.6-40.2 49.9-60.5" style="-inkscape-stroke:none"/><path d="M603.8 952.3c27.3 4 54.9 7.3 82.8 9.8a2944.6 2944.6 0 0 1-49.9 60.5c-30-2.7-59.7-6-89.1-10.3 19-19.8 37.6-39.9 56.2-60m-306.5-1.5a1207 1207 0 0 0 78.8 25c-23 19-46.1 38.1-69.2 56.9-28.6-8-56.6-17-84-26.7l74.4-55.2m-524.3-2.1a752.5 752.5 0 0 0 63 47.5 11998 11998 0 0 0-81.3 47.4 781.9 781.9 0 0 1-65.8-49.4c27.3-15.1 56-30.3 84.1-45.5m147.2-.6a859.8 859.8 0 0 0 68.7 42c-27.3 16.8-54 33.3-80.7 50a902.2 902.2 0 0 1-71.7-43.9c27.6-16 55.4-32 83.7-48.1m-287.9-6.4a675 675 0 0 0 56.1 52.5c-27.6 15.2-53.6 30.3-80.2 45.4a667.3 667.3 0 0 1-57.5-54.5c26.8-14.5 53.7-29 81.6-43.4M72 939.3a962.3 962.3 0 0 0 71.5 35.6l-78.4 52.8a1023.3 1023.3 0 0 1-75.8-37.6c27.2-16.9 55.2-33.8 82.8-50.8" style="-inkscape-stroke:none"/><path d="M523.1 937.9c26.4 5.6 53.2 10.3 80.5 14.4a4116.6 4116.6 0 0 1-56.2 60c-29.3-4.4-58.2-9.9-86.7-15.9 20.9-19.4 41.8-38.8 62.4-58.5m-1080.7 21.5c15.7-8.6 31.3-17.2 48.4-26l12.7-6.2a538 538 0 0 0 46.8 57.8c-13 7-27 14-39.7 21-13.4 7.4-24.8 14.3-37.7 21.6a617.6 617.6 0 0 1-30.6-35.2m780.9-70.8c23.8 10.6 48.6 20.1 73.9 29.1-24.9 18.6-49.6 37-74.3 55.2a1103 1103 0 0 1-78.8-31l79.2-53.3m222-2.7c25.3 7 51.2 13.3 77.7 19a6147.7 6147.7 0 0 1-62.5 58.4c-28.4-6-56.4-13-83.8-20.6 20.6-17.1 41.2-33.6 61.8-51l6.8-5.8m437.2 1.1c-8.2 15.4-16.6 30.8-25.5 46.2-28.3.7-56.4.7-84.4-.2a2064 2064 0 0 0 40.3-60.7c23 .7 46.3.8 69.5.3m-1023-2.9A727 727 0 0 0-80 948c-28.3 16-56 32-83.7 48a752.2 752.2 0 0 1-63-47.4c28.4-15.3 56.8-30.6 86-45.9" style="-inkscape-stroke:none"/><path d="m882.3 965.7-25.1.5a1472 1472 0 0 0 25.2-45.6M735 900.7c25.6 2.3 51.5 3.8 77.5 4.6a2064 2064 0 0 1-40.3 60.7 1468 1468 0 0 1-84.5-5c11-13.7 22.2-27.2 33-41 4.9-6.5 9.4-12.9 14.3-19.3M6.2 899.4a823 823 0 0 0 65.6 39.8c-27.6 17-55.5 33.9-82.7 50.7a864.3 864.3 0 0 1-68.6-42c28.4-16 56.8-32.3 85.7-48.5m-287.2-1.6a618.2 618.2 0 0 0 53.8 50.7c-28.2 15.2-56.8 30.4-84.1 45.5a647.2 647.2 0 0 1-56.1-52.4c28.1-14.7 57.2-29.2 86.4-43.8m652.3-2.2c23.8 8.5 48.4 16.2 73.6 23.2l-6.8 5.9c-20.6 17.3-41.2 33.8-61.8 50.9-26.9-7.5-53.2-15.8-78.8-25 19.6-14.5 38.8-28.6 58.5-43.4l15.3-11.6" style="-inkscape-stroke:none"/><path d="M658.6 891.7c25 3.7 50.5 6.7 76.2 9-5 6.4-9.4 12.8-14.4 19.2-10.7 13.8-22 27.4-32.9 41a1306 1306 0 0 1-82.7-9.7c6-6.5 12.3-13 18.3-19.6 12.2-13.3 23.7-26.6 35.5-40M155.7 888c21.3 11.6 43.4 23 67.2 33.5l-79.2 53.3a964 964 0 0 1-71.4-35.6l83.4-51.2m-568.9-1.9c13.4 19 28.5 37.4 45.3 55.4-27.9 14.5-54.8 29-81.6 43.4a539 539 0 0 1-46.7-57.8 4599 4599 0 0 1 83-41" style="-inkscape-stroke:none"/><path d="M584.4 878.5c24.2 5.1 48.9 9.5 74 13.2-11.9 13.3-23.4 26.6-35.5 40-6 6.6-12.3 13-18.4 19.6-27.2-4-54-8.8-80.4-14.4 1.4-1.3 2.8-2.5 4-3.8 19.2-18.2 37.8-36.4 56.3-54.6m-282-10.3a993 993 0 0 0 68.7 27.3L355.7 907c-19.6 14.7-38.8 28.8-58.4 43.4-25.3-9-50-18.5-74-29.1l79.1-53.2m-860.2 11.5 25-12.2c10 20.3 22.5 40 36.2 59.5l-12.7 6.3c-17 8.8-32.6 17.3-48.3 25.9m1070-98.2a1137 1137 0 0 0 71.7 17.5c-18.6 18.2-37 36.4-56.2 54.6l-4 3.8c-26.5-5.6-52.4-11.8-77.7-18.9 22.7-19.1 44-38 66.2-57m-563.8-4.5c17.6 14.8 37 29 57.4 42.8-29 16.2-57.3 32.4-85.7 48.6a726.7 726.7 0 0 1-60.7-45.3c29.3-15.4 59-30.8 89-46.1m-141.1-2.6c15.6 16.7 32.9 33 51.6 48.7a8956 8956 0 0 0-86 45.9 619.4 619.4 0 0 1-53.8-50.7c29.3-14.7 58.1-29.4 88.2-43.9m286.9-3.2a763.3 763.3 0 0 0 61 37.3L72.2 939a818 818 0 0 1-65.6-39.7c29-16.3 58.4-32.5 87.9-48.7m-420.1-6.4a517 517 0 0 0 44.4 53.4c-29.2 14.6-58.3 29.1-86.5 43.8a524.3 524.3 0 0 1-45.3-55.5 5357 5357 0 0 1 87.4-41.7m1207.9 60.4c-23 .5-46 .4-68.8-.3 1.4-2.3 3-4.4 4.4-6.6 11.4-18.2 22-36.3 32.6-54.3l31.8.6M445 839.6a973.2 973.2 0 0 0 67.1 21.2c-22.1 19-43.4 37.9-66.1 57a1147 1147 0 0 1-73.5-23.1l72.5-55.1" style="-inkscape-stroke:none"/><path d="M780.4 839.3c23 2 46.4 3.4 69.8 4.1a1911 1911 0 0 1-32.6 54.3l-4.4 6.6c-26-.8-51.8-2.3-77.4-4.6 15.3-20.2 30.3-40.3 44.6-60.4M239.3 837a874 874 0 0 0 62.8 31.1l-79 53.2a908.4 908.4 0 0 1-67.2-33.5c28-17 55.2-33.8 83.4-50.8" style="-inkscape-stroke:none"/><path d="M711.2 831.1c22.7 3.4 45.7 6 69 8.1-14.3 20-29.3 40.2-44.6 60.4a1302 1302 0 0 1-76-8.9c17.6-20 34.8-39.8 51.6-59.6m-1159.2-3c9.7 19.6 21.3 39 34.6 57.8a4599 4599 0 0 0-83 41 453 453 0 0 1-36.2-59.6c8-3.8 15.5-7.7 23.6-11.6 19.6-9.3 40.8-18.4 61-27.6" style="-inkscape-stroke:none"/><path d="M644 819.1c22 4.6 44.3 8.6 66.9 12-16.8 19.8-34 39.6-51.7 59.6-25-3.8-49.6-8.1-73.8-13.2 20-19.6 39.4-39 58.6-58.4m-262-4.5c20.2 9 41.2 17.2 62.7 25-24.2 18.3-47.8 36.4-72.5 55a988 988 0 0 1-68.6-27.3l78.4-52.7m-481.7-4.4a554.7 554.7 0 0 0 48.2 46c-30 15.4-59.8 30.8-89.2 46.2-18.7-15.7-36-32-51.6-48.7 30.3-14.6 61.6-29 92.6-43.5m140.1-.1a641.2 641.2 0 0 0 53.8 40.3 11992 11992 0 0 0-88 48.7 683.8 683.8 0 0 1-57.2-43c30.3-15.4 60.8-30.8 91.5-46.1m-598.2-4.2.4-.2a379 379 0 0 0 19.1 51.2c1.6 3.5 3.5 6.9 5.2 10.3l-24.9 12.2" style="-inkscape-stroke:none"/><path d="M579.3 803.3c21 5.9 42.5 11 64.5 15.8a5677.2 5677.2 0 0 1-58.6 58.3c-24.4-5.1-48.3-10.9-71.6-17.5 22-18.9 44.3-37.9 65.7-56.6m-813.7-.7a484.6 484.6 0 0 0 41.7 51c-30 14.5-58.9 29.2-88.2 43.8a513.4 513.4 0 0 1-44.3-53.4 5893 5893 0 0 1 90.8-41.4m416.8-.4a717 717 0 0 0 56.7 34.6c-28.1 17-55.3 33.8-83.3 50.9a767.7 767.7 0 0 1-61.2-37.3c29.3-16.1 58.3-32.2 87.8-48.2m-541.8-14.3c9.4 19 20.7 37.8 33.6 56.1a5357 5357 0 0 0-87.3 41.7 435.3 435.3 0 0 1-34.6-57.8c29.2-13.3 58-26.9 88.3-40m683.9-1.7c18.1 10 37.2 19.4 57.3 28.4l-78.4 52.7c-22-9.8-42.8-20.2-62.7-31 28-17 55.8-33.3 83.8-50.1m193.7-2.1a924 924 0 0 0 60.8 19.2c-21.4 18.8-43.7 37.7-65.7 56.7a1051 1051 0 0 1-67-21.2l72-54.7m364 58.8c-10.4 0-20.8-.2-31.2-.6a1753 1753 0 0 0 31.2-55.8" style="-inkscape-stroke:none"/><path d="M882.4 786c-10 18.7-20.4 37.5-31.5 56.4-23.4-.8-46.7-2.1-69.7-4.1a2745 2745 0 0 0 41.7-60.2c19.7 1.7 39.5 3 59.4 3.6" style="-inkscape-stroke:none"/><path d="M761.3 770.8c20.2 3 40.6 5.4 61.3 7.2-13.3 20-27.4 40-41.8 60.2-23.2-2-46.1-4.8-68.8-8.1 16.8-19.9 33.4-39.7 49.3-59.3m-1233-3.1a358 358 0 0 0 23.6 60.2c-20.2 9.2-41.4 18.3-61 27.6-8.2 3.9-15.7 7.7-23.7 11.6-1.7-3.5-3.5-6.8-5-10.3-7.9-17-14.2-34.1-19.2-51.2 22.7-10.5 46-21 70-31.5 5-2.1 10.3-4.2 15.3-6.4m465.7-.8c13.9 14.8 29.6 29 46.2 43-30.8 15.4-61.2 30.7-91.5 46.2a554.5 554.5 0 0 1-48.2-46c31-14.6 62-29 93.6-43.2m138.3-2.4c15.4 13 31.9 25.5 49.8 37.6-29.5 16-58.6 32.1-87.8 48.2A640.2 640.2 0 0 1 40.7 810c30.5-15.2 60.9-30.5 91.7-45.5m-272.1-2.9c11.6 16.5 25 32.5 39.8 48.3-31 14.5-62.2 28.9-92.5 43.5a484.4 484.4 0 0 1-41.7-51c31-13.7 62.6-27.3 94.4-40.8m600.8-.2A819.9 819.9 0 0 0 518 784l-72 54.6a929.5 929.5 0 0 1-62.7-24.8l77.8-52.4" style="-inkscape-stroke:none"/><path d="M701.6 760.2a1010 1010 0 0 0 59.5 10.6 3596 3596 0 0 1-49.3 59.3c-22.6-3.3-45-7.3-66.8-12 19.3-19.4 38.1-38.7 56.6-57.9m-429.6-6c16.4 11 33.7 21.7 52.2 31.9-28 16.8-55.8 33-83.8 50-20-11-38.8-22.6-56.6-34.6 29.3-16 58.8-31.6 88.2-47.3m-538.2-4.8a409 409 0 0 0 31.6 53c-30.8 13.7-61 27.6-90.9 41.5a424.5 424.5 0 0 1-33.6-56.1c30.2-13 61.8-25.7 92.9-38.4m910.1-3.3c18.7 5.3 37.9 9.9 57.4 14a5403.7 5403.7 0 0 1-56.6 58 1027 1027 0 0 1-64.4-15.7c21.8-19 42.6-37.6 63.6-56.3m-234.8-10.4c16.4 9 33.6 17.5 51.8 25.6L383 813.7c-20-9-39-18.4-57.2-28.3l83.2-49.7m-790.7-5.4 2.7 9.6a362 362 0 0 0 19.5 47.7c-30.3 13.1-59 26.6-88.3 40a358.1 358.1 0 0 1-23.6-60.1 4085 4085 0 0 1 89.7-37.2m971.4-1.3a824.7 824.7 0 0 0 54 17c-21 18.8-42 37.3-63.6 56.4-20.8-5.9-41-12.2-60.7-19.2 24-18.4 47-36.1 70.3-54.2M90 724.3c12.9 13.7 26.8 27 42.2 40-30.9 15-61.2 30.3-91.8 45.5a529.3 529.3 0 0 1-46-43C26 752.5 57.8 738.3 90 724.3m-133.1-3.5c11 15.6 23 31 37 46a8236.8 8236.8 0 0 0-93.6 43 461.9 461.9 0 0 1-39.8-48.2c32-13.7 63.7-27.5 96.4-40.8m269.4-1.2a547.5 547.5 0 0 0 45.5 34.4c-29.4 15.7-58.9 31.4-88.2 47.3a591 591 0 0 1-49.7-37.6c30.7-15 61.6-29.4 92.4-44.1m656 61c-19.7-.7-39.3-1.8-58.7-3.5 13.4-20 26-40 38.3-59.6l20.4 1.6" style="-inkscape-stroke:none"/><path d="M808.8 711.2a911 911 0 0 0 52.9 6.2 2179.6 2179.6 0 0 1-38.3 59.6c-20.6-1.8-41-4.2-61.2-7.2 15.9-19.6 31.6-39.3 46.6-58.6m-978.9-.5a379 379 0 0 0 30.1 50.7 6386 6386 0 0 0-94.4 40.9 400.4 400.4 0 0 1-31.5-53c31.7-13 63.3-26 95.8-38.6m709.2-1.8a726 726 0 0 0 50.4 20l-70.3 54.2c-19.6-7-38.6-14.5-56.8-22.6L539 709m-1096.8 29c24-10.4 48.9-20.8 74.3-31 2 20.1 6 40.3 11.8 60.4l-15.3 6.5a3557 3557 0 0 0-70 31.3l-.7-2.3m919.3-96.2c14.8 10 30.5 19.7 47.3 28.8l-83.2 49.7a655.6 655.6 0 0 1-52.2-31.8c29.4-15.7 58.7-31.3 88.1-46.7" style="-inkscape-stroke:none"/><path d="M756.8 701.9c17 3.6 34.2 6.6 51.7 9.2a3249 3249 0 0 1-46.6 58.7c-20-3-39.9-6.5-59.4-10.7 18.5-19.2 36.7-38.3 54.3-57.2m-1044.7-8a341 341 0 0 0 21.6 55.3c-31.1 12.7-62.7 25.3-92.9 38.3a361.8 361.8 0 0 1-19.5-47.6c-1-3.2-1.8-6.4-2.7-9.7 30.7-12.3 61.8-24.4 93.5-36.3" style="-inkscape-stroke:none"/><path d="M706.4 689.6a799 799 0 0 0 50.1 12.3 4948 4948 0 0 1-54.2 57.2 912.7 912.7 0 0 1-57.3-14c21-18.7 41.2-37.1 61.4-55.5m-213.8-3.7c14.7 8 30 15.7 46.3 23L462 760.4c-18-8-35.3-16.7-51.6-25.6 27.3-16.3 55-33 82.1-49m-305.2-3.1a447 447 0 0 0 38.8 36.8c-30.8 14.6-61.7 29.2-92.4 44a487 487 0 0 1-42-39.9c31.7-13.9 63.6-27.4 95.6-41M55 682.2a404.7 404.7 0 0 0 34.9 42c-32.1 14-64 28.1-95.8 42.4a424 424 0 0 1-37-46c32.3-13 65.2-25.6 97.9-38.4m265.1-6.8a491.4 491.4 0 0 0 41.3 31.2c-29.4 15.4-58.7 31-88.1 46.6a543.4 543.4 0 0 1-45.5-34.3c30.8-14.6 61.4-29.2 92.3-43.5m339.4-.6a718 718 0 0 0 46.6 14.8 8456.2 8456.2 0 0 1-61.4 55.5 820.3 820.3 0 0 1-53.8-17l68.6-53.3m-730.6-1.3c7.9 15.9 17 31.6 27.9 47-32.7 13.3-64.4 27.1-96.4 40.8a379.8 379.8 0 0 1-30.2-50.7c32.5-12.6 65.5-25 98.7-37.1m-322.1-1.6c2 19.4 5.7 38.9 11.4 58.2a4085 4085 0 0 0-89.7 37.2c-5.8-20-9.7-40.2-11.7-60.4 13.8-5.6 27.4-11.2 41.6-16.8 15.9-6.2 32.2-12.1 48.4-18.2m843.9-11.6c13 8.8 27 17.4 41.7 25.4-27.2 16-54.8 32.8-82.1 49A591.1 591.1 0 0 1 363 706a14782 14782 0 0 1 87.6-45.6m-641.1-2c5.1 17.6 11.8 35 20.3 52.1A5522.4 5522.4 0 0 0-266 749c-9-18.1-16.1-36.5-21.6-55.2 32-12 64.3-23.8 97.1-35.4m1072.8 59.5-19.8-1.5c6.9-11 13.4-21.9 19.8-32.7m-266.7-26.3c14 6.2 28.6 12 43.6 17.3L590.6 728c-17.2-6.2-34-12.8-50.2-20l75.2-50.6m266.8 25.9c-6.5 11-13.2 22-20 33.1a908.5 908.5 0 0 1-52.8-6.2c15-19.4 29.3-38.6 43.2-57.7 9.8 1.5 19.6 2.7 29.5 3.8m-1440.1 18.9c24-9.9 48.7-19.7 74-29.3a325 325 0 0 0 .2 60.8 3275.6 3275.6 0 0 0-74.2 31" style="-inkscape-stroke:none"/><path d="M809.2 644.7c14.2 3 28.6 5.6 43.3 7.7a2885 2885 0 0 1-43.2 57.7 858.2 858.2 0 0 1-51.6-9.2 4506 4506 0 0 0 51.5-56.2m-653.8-1.1a366.7 366.7 0 0 0 31.7 38.9c-32 13.5-63.9 27-95.7 41a405.7 405.7 0 0 1-34.8-42c32.9-12.8 65.6-25.5 98.8-37.9m129.3-1.8a402.5 402.5 0 0 0 35.2 33.4c-30.9 14.3-61.5 29-92.3 43.5A446.9 446.9 0 0 1 189 682c32-13.5 63.7-27.1 95.8-40.2M28.5 638a334 334 0 0 0 26.3 44c-32.6 12.7-65.5 25.3-97.8 38.4a355.1 355.1 0 0 1-27.8-47c32.9-12 65.9-23.8 99.3-35.4m-327.3-.1c1.4 14 3.5 28.1 7 42.2 1 4.5 2.6 9 3.9 13.5-31.7 12-62.9 24-93.5 36.4a320.5 320.5 0 0 1-11.4-58.3c30.9-11.5 62.2-22.8 94-33.8m874.3-.3a544.1 544.1 0 0 0 39.8 19.7l-75.2 50.6a623.8 623.8 0 0 1-46.2-22.8c27.9-16.4 54.1-31.4 81.6-47.5" style="-inkscape-stroke:none"/><path d="M767.2 634.5c13.6 3.8 27.6 7.2 41.8 10.2-16.6 18.5-34 37.3-51.5 56.2-17-3.6-33.8-7.6-50-12.2 19.8-18 40.7-36.6 59.7-54.2M414 632.6a436 436 0 0 0 36.5 27.6c-29.1 15-58.3 30.3-87.6 45.6a490.4 490.4 0 0 1-41.2-31.1 10691 10691 0 0 1 92.3-42.1m-504.5-7.7a306.1 306.1 0 0 0 19.3 48.4 5888.3 5888.3 0 0 0-98.7 37 322.9 322.9 0 0 1-20.3-52c32.8-11.6 66.3-22.4 99.7-33.4m817.8-3c12.8 4.6 26 8.7 39.6 12.5-19 17.6-40 36.1-59.8 54.2a711.7 711.7 0 0 1-46.5-14.8c22.2-17.3 45.3-35 66.7-51.9m-188.4-6.6a455.8 455.8 0 0 0 36.4 22.2c-27.5 16-53.7 31-81.6 47.4-14.7-8-28.5-16.6-41.6-25.4 29.2-15 58-29.6 86.8-44.2m-932.4-2.2a309 309 0 0 0 .3 58.5c-16.2 6-32.5 12-48.4 18.3-14.2 5.5-27.8 11.1-41.6 16.7a325 325 0 0 1-.2-60.8c29.2-11 59-22 89.9-32.7m1083.7-5.9a533.2 533.2 0 0 0 37 14.7l-66.8 52c-15-5.4-29.5-11.2-43.5-17.4l73.3-49.3m-434-.4a330.8 330.8 0 0 0 28.4 34.8c-32.1 13-64 26.7-95.9 40.2a365.2 365.2 0 0 1-31.6-38.8c33-12.3 66-24.4 99.1-36.2m-457.6-1.3c1.8 17.7 5.7 35.2 10.8 52.7a4843.7 4843.7 0 0 0-97.1 35.4c-1.3-4.5-2.8-9-3.9-13.5-3.4-14-5.6-28.2-7-42.2 32-11 64.4-22 97.2-32.4m331.9-2.4c6.8 13.7 15.5 27 24.8 40.3-33.2 12.4-66 25.1-98.8 38-10.1-14.4-19-29-26.3-44 33.3-11.5 66.6-23.2 100.3-34.3m252.2-.1c9.4 10 19.8 20 31 29.4-30.7 14-61.4 27.9-92.2 42.1a402.8 402.8 0 0 1-35.2-33.4c32.2-13 64.3-25.5 96.4-38.1m499.6 52.2c-9.7-1-19.2-2.3-28.8-3.7 10-13.6 19.6-27 28.9-40.4" style="-inkscape-stroke:none"/><path d="M10.3 592.1a282.8 282.8 0 0 0 18 45.7 6220 6220 0 0 0-99.2 35.4 305 305 0 0 1-19.2-48.4c33.4-11 66.5-22.2 100.5-32.7m496.6-.9c9.8 8.3 20.4 16.3 31.8 24a10167 10167 0 0 0-86.8 44.2c-13-8.8-25.2-18-36.4-27.5 30.6-13.8 61-27.3 91.4-40.7m149.5-.5a465.7 465.7 0 0 0 33.4 16.4l-73.3 49.3a524 524 0 0 1-39.7-19.6c27-15.8 53-30.8 79.6-46.1" style="-inkscape-stroke:none"/><path d="M882.4 610.7c-9.4 13.5-19 27-29.1 40.8-14.6-2.2-29-4.7-43.2-7.7 16.7-18.6 32.4-36.7 48-54.8 8 1.7 16 3.2 24.2 4.6"/><path d="m-557.7 617.9.2-.6c27.5-11 56-21.7 85.2-32.2a331 331 0 0 0-11.5 60.5c-25.3 9.6-50 19.4-74 29.3m258.7-93.2c-1.7 18.6-1.6 37.3.3 56a3947 3947 0 0 0-94 33.8 301 301 0 0 1-.4-58.5l21.4-7.6c24-8.1 48.2-16 72.7-23.7m1122.8-1.2a474 474 0 0 0 34.2 8.4 4956 4956 0 0 1-48 54.8c-14.2-3-28.1-6.4-41.7-10.2 19.7-18.3 36.8-35.2 55.5-53m-924.4-5.9c1.7 16.8 5.3 33.5 10.2 50-33.5 11-67 21.9-99.8 33.4-5-17.4-9-35-10.7-52.7 33-10.5 66.5-20.8 100.3-30.7m457.9-2.9c7.5 10.6 16 21 25.4 31-32.2 12.7-64.3 25.1-96.4 38.2a329.7 329.7 0 0 1-28.3-34.7c33.1-11.8 66.1-23.2 99.3-34.5m268-.1a432 432 0 0 0 31 19c-26.4 15.2-52.5 30.2-79.5 46a437 437 0 0 1-36.3-22.1c28.3-14.4 56.9-29 84.8-42.9m166.8-1.2a462 462 0 0 0 31.5 10c-18.7 17.8-35.8 34.7-55.5 53a603.7 603.7 0 0 1-39.5-12.4c22.3-17.5 42.2-33.7 63.5-50.6m-557.6-.1a274.9 274.9 0 0 0 21.6 36.2 7368.8 7368.8 0 0 0-99 36.2c-9.3-13.2-18-26.6-24.8-40.3 34-11.1 68-21.5 102.2-32.1m245.3-5c8.2 8.8 17.2 17.4 27.1 25.7-30.4 13.4-60.8 26.9-91.4 40.7a359.2 359.2 0 0 1-31-29.4 8277 8277 0 0 1 95.3-37m-365.5-3.5c4.1 13.8 9.5 27.5 16.2 41-33.7 11-67 22.8-100.3 34.3-7.4-15-13.5-30.2-18-45.6 33.7-10.4 68-19.9 102.1-29.7m648.1-3.2c9.5 4.2 19.3 8.1 29.4 11.8-21.3 16.9-41.3 33-63.5 50.5-12.6-4.5-25-9.3-36.8-14.6l70.9-47.7M-557.8 565c8-3.2 16.2-6.3 24.4-9.4a382.1 382.1 0 0 0-24.3 61.2" style="-inkscape-stroke:none"/><path d="M-382.3 554.5a318.7 318.7 0 0 0-11.2 58.3 3242.2 3242.2 0 0 0-90 32.7 331 331 0 0 1 11.6-60.5c29-10.4 58.9-20.6 89.6-30.5m181.4-2.5a278 278 0 0 0-.4 53.2 4356.6 4356.6 0 0 0-97.2 32.4c-1.9-18.8-2-37.4-.3-56a3891 3891 0 0 1 97.9-29.6m799.2-.6c8.2 6.9 17 13.6 26.7 20.1-28 14-56.5 28.5-84.8 42.9a378 378 0 0 1-31.7-24c30-13.1 60.1-26.3 89.8-39M1.2 546a248.1 248.1 0 0 0 9 45.9c-34 10.4-67 21.7-100.5 32.7a273.3 273.3 0 0 1-10.1-50A4886 4886 0 0 1 1.2 546m733.8-.8c8.5 4.6 17.5 9 27 13.3l-70.8 47.7a461 461 0 0 1-33.3-16.4c25.7-14.8 52-30.2 77.1-44.6m-396-3.6a244.3 244.3 0 0 0 18 29.9 7299.7 7299.7 0 0 0-99.2 34.5 273.6 273.6 0 0 1-21.6-36.2c30.8-9.6 61.5-19.2 92.3-28.3" style="-inkscape-stroke:none"/><path d="M460 541.6a261 261 0 0 0 19.5 23.5c-31.7 12-63.5 24.5-95.3 37a294 294 0 0 1-25.3-31c29.2-10 58.4-20 87.5-29.6"/><path d="M882.3 592.4c-7.8-1.3-15.6-2.8-23.3-4.4 8-9.2 15.7-18.3 23.3-27.3m-659.9-19.1c3.3 9.6 7.2 19.1 11.9 28.5-34.2 10.6-68.3 21-102.2 32.1a257 257 0 0 1-16.1-40.9 7226 7226 0 0 1 70-19.8m542.7.1 6.2 3.4c-25.2 14.4-51.5 29.8-77.2 44.7-11-6-21.3-12.3-31-18.8l59.8-29.3m-99.1 0c3.4 3.2 7 6.4 10.8 9.6-29.7 12.7-59.7 26-89.8 39.1a310.7 310.7 0 0 1-27-25.6c20.8-7.9 41.4-15.6 62-23.1m338.9 18.7c-7.7 9.1-15.5 18.3-23.6 27.6a527.3 527.3 0 0 1-34-8.4c13.3-12.7 27-25.5 40-38m-1157.4.1a304 304 0 0 0-6.4 39.8c-24.5 7.8-48.8 15.6-72.8 23.8-7.2 2.4-14.1 5-21.3 7.5 1.9-19.6 5.7-39 11.3-58.3 13.4-4.3 27-8.6 40.7-12.8m-115.5 0a365.7 365.7 0 0 0-15.5 43.3 2603.6 2603.6 0 0 0-85.3 32.2c6-20.9 14.6-41.4 24.5-61.7 12.3-4.7 24.7-9.3 37.4-13.8m394.1 0c-.4 11-.3 21.9.8 32.8A4532 4532 0 0 0-201 605a278 278 0 0 1 .5-53.2l36.9-10.4m1028 .1c-13 12.5-26.7 25.4-40 38-10.6-3-21.1-6.3-31.3-10l35.4-28.1m-719.4.2c1.4 6.7 3 13.4 5 20-34 9.8-68.3 19.3-102 29.7a258.1 258.1 0 0 1-9-45.8l14.7-4m668.2.1c-19.7 9.6-39.4 19.1-59.4 29.1a316.7 316.7 0 0 1-26.6-20 4297 4297 0 0 1 21.7-9.2m206.5-.2-35.3 28c-10-3.5-19.8-7.4-29.3-11.6l24-16.2m-342 0c-28.9 9.5-57.9 19.5-86.9 29.4a243.2 243.2 0 0 1-17.7-29.3m201.7-.1a4718 4718 0 0 0-61.5 23 266 266 0 0 1-19-23m-134.6 0c-30.6 9-61 18.6-91.5 28-4.6-9.2-8.4-18.5-11.7-28m562.8.1-23.8 16a376 376 0 0 1-27-13.2l4.8-2.7" style="-inkscape-stroke:none"/><path d="m.8 541.6.4 4.1c-34 9.2-68 18.7-101.6 28.6a255 255 0 0 1-.8-32.7m-98.6 0-1.1 10.2c-33 9.4-65.7 19.3-98 29.5 1.3-13.3 3.5-26.5 6.5-39.7m-85.9 0-4 12.7c-30.6 9.9-60.4 20-89.5 30.5 4.1-14.5 9.3-29 15.4-43.2m1077.4-.1-21.3 9c-3.5-3-6.8-5.9-10-8.9m-1115.9 0c-2.5 4.5-4.8 9.1-7 13.7l-24.6 9.5m742.9-23.3c-23.1 6.4-46.1 13-69.2 19.6a279 279 0 0 1-5-19.5m-275.5-.1-36 10.1c.4-3.3.7-6.7 1.2-10m-142.6 0c-13.4 4.1-26.7 8.3-39.9 12.6l4-12.6m-118.3 0c-12.4 4.5-24.6 9-36.6 13.6 2.2-4.6 4.5-9.1 7-13.6" style="-inkscape-stroke:none"/></g></g></svg>